<?xml version="1.0" encoding="UTF-8" standalone="no"?>
<!DOCTYPE svg PUBLIC "-//W3C//DTD SVG 1.1//EN" "http://www.w3.org/Graphics/SVG/1.1/DTD/svg11.dtd">
<svg width="100%" height="100%" viewBox="0 0 212 196" version="1.1" xmlns="http://www.w3.org/2000/svg" xmlns:xlink="http://www.w3.org/1999/xlink" xml:space="preserve" xmlns:serif="http://www.serif.com/" style="fill-rule:evenodd;clip-rule:evenodd;stroke-linejoin:round;stroke-miterlimit:2;">
    <g transform="matrix(1,0,0,1,-268.021,-387.797)">
        <path d="M364.021,403.43L364.021,583.43L396.021,568.369L396.021,387.797L364.021,403.43Z" style="fill:rgb(248,147,29);fill-rule:nonzero;"/>
    </g>
    <g transform="matrix(1,0,0,1,-268.021,-400.7)">
        <path d="M474.843,469.133L479.26,514.997L417.377,501.533" style="fill:rgb(188,190,192);fill-rule:nonzero;"/>
    </g>
    <g transform="matrix(1,0,0,1,-268.021,-328.595)">
        <path d="M300.021,455.72C300.021,433.046 324.728,413.951 358.404,408.122L358.404,387.797C306.894,394.023 268.021,422.064 268.021,455.72C268.021,490.589 309.746,519.429 364.021,524.228L364.021,504.167C327.505,499.589 300.021,479.639 300.021,455.72M401.638,387.805L401.638,408.122C415.037,410.441 427.023,414.849 436.589,420.762L459.216,406.778C443.796,397.247 423.894,390.495 401.638,387.805" style="fill:rgb(188,190,192);fill-rule:nonzero;"/>
    </g>
    <g transform="matrix(1,0,0,1,-268.021,-387.797)">
        <path d="M364.021,403.43L364.021,583.43L396.021,568.369L396.021,387.797L364.021,403.43Z" style="fill:rgb(248,147,29);fill-rule:nonzero;"/>
    </g>
    <g transform="matrix(1,0,0,1,-268.021,-400.7)">
        <path d="M474.843,469.133L479.26,514.997L417.377,501.533" style="fill:rgb(188,190,192);fill-rule:nonzero;"/>
    </g>
    <g transform="matrix(1,0,0,1,-268.021,-328.595)">
        <path d="M300.021,455.72C300.021,433.046 324.728,413.951 358.404,408.122L358.404,387.797C306.894,394.023 268.021,422.064 268.021,455.72C268.021,490.589 309.746,519.429 364.021,524.228L364.021,504.167C327.505,499.589 300.021,479.639 300.021,455.72M401.638,387.805L401.638,408.122C415.037,410.441 427.023,414.849 436.589,420.762L459.216,406.778C443.796,397.247 423.894,390.495 401.638,387.805" style="fill:rgb(188,190,192);fill-rule:nonzero;"/>
    </g>
</svg>
